<svg id="279aec89-d18a-4f54-b0ef-a554b92ba5d5" preserveAspectRatio="none slice" data-name="Layer 1" xmlns="http://www.w3.org/2000/svg" viewBox="0 0 170 85"><defs><style>.a0274bb5-b3a2-4f0c-819f-d25785bb267e{opacity:0.1;}.\38 329ef8f-ce98-4222-9d06-66e9d705b96a{fill:#9ea8c6;}</style></defs><title>geometric3</title><g class="a0274bb5-b3a2-4f0c-819f-d25785bb267e"><polygon class="8329ef8f-ce98-4222-9d06-66e9d705b96a" points="14.17 59.5 8.5 53.83 2.83 59.5 0 62.33 0 73.67 2.83 76.5 0 79.33 0 85 5.67 85 8.5 82.17 14.17 76.5 8.5 70.83 5.67 68 8.5 65.17 11.33 68 28.33 85 39.67 85 17 62.33 14.17 59.5"/><polygon class="8329ef8f-ce98-4222-9d06-66e9d705b96a" points="11.33 85 22.67 85 17 79.33 11.33 85"/><polygon class="8329ef8f-ce98-4222-9d06-66e9d705b96a" points="134.58 77.92 107.67 51 110.5 48.17 113.33 51 119 56.67 124.67 51 127.5 48.17 130.33 51 127.5 53.83 121.83 59.5 127.5 65.17 130.33 68 136 73.67 141.67 68 144.5 65.17 168.58 41.08 170 39.67 170 28.33 162.92 35.42 138.83 59.5 136 62.33 133.17 59.5 136 56.67 141.67 51 136 45.33 133.17 42.5 136 39.67 138.83 42.5 144.5 48.17 150.17 42.5 153 39.67 158.67 34 153 28.33 150.17 25.5 126.08 1.42 124.67 0 113.33 0 120.42 7.08 144.5 31.17 147.33 34 144.5 36.83 141.67 34 136 28.33 130.33 34 127.5 36.83 124.67 34 127.5 31.17 133.17 25.5 119 11.33 113.33 17 86.42 43.92 59.5 70.83 53.83 76.5 62.33 85 73.67 85 76.5 82.17 79.33 85 90.67 85 93.5 82.17 99.17 76.5 93.5 70.83 90.67 68 93.5 65.17 113.33 85 124.67 85 93.5 53.83 87.83 59.5 85 62.33 79.33 68 85 73.67 87.83 76.5 85 79.33 82.17 76.5 76.5 70.83 70.83 76.5 68 79.33 65.17 76.5 92.08 49.58 119 22.67 121.83 25.5 119 28.33 113.33 34 119 39.67 121.83 42.5 119 45.33 116.17 42.5 110.5 36.83 104.83 42.5 102 45.33 96.33 51 128.92 83.58 130.33 85 141.67 85 134.58 77.92"/><polygon class="8329ef8f-ce98-4222-9d06-66e9d705b96a" points="25.5 14.17 31.17 8.5 25.5 2.83 22.67 0 11.33 0 8.5 2.83 5.67 0 0 0 0 5.67 2.83 8.5 8.5 14.17 14.17 8.5 17 5.67 19.83 8.5 17 11.33 0 28.33 0 39.67 22.67 17 25.5 14.17"/><polygon class="8329ef8f-ce98-4222-9d06-66e9d705b96a" points="96.33 85 107.67 85 102 79.33 96.33 85"/><polygon class="8329ef8f-ce98-4222-9d06-66e9d705b96a" points="25.5 53.83 22.67 51 25.5 48.17 28.33 51 34 56.67 39.67 51 42.5 48.17 45.33 51 42.5 53.83 36.83 59.5 51 73.67 56.67 68 83.58 41.08 110.5 14.17 116.17 8.5 107.67 0 96.33 0 93.5 2.83 90.67 0 79.33 0 76.5 2.83 70.83 8.5 76.5 14.17 79.33 17 76.5 19.83 56.67 0 45.33 0 76.5 31.17 82.17 25.5 85 22.67 90.67 17 85 11.33 82.17 8.5 85 5.67 87.83 8.5 93.5 14.17 99.17 8.5 102 5.67 104.83 8.5 77.92 35.42 51 62.33 48.17 59.5 51 56.67 56.67 51 51 45.33 48.17 42.5 51 39.67 53.83 42.5 59.5 48.17 65.17 42.5 68 39.67 73.67 34 41.08 1.42 39.67 0 28.33 0 35.42 7.08 62.33 34 59.5 36.83 56.67 34 51 28.33 45.33 34 42.5 36.83 39.67 34 42.5 31.17 48.17 25.5 42.5 19.83 39.67 17 34 11.33 28.33 17 25.5 19.83 1.42 43.92 0 45.33 0 56.67 7.08 49.58 31.17 25.5 34 22.67 36.83 25.5 34 28.33 28.33 34 34 39.67 36.83 42.5 34 45.33 31.17 42.5 25.5 36.83 19.83 42.5 17 45.33 11.33 51 17 56.67 19.83 59.5 43.92 83.58 45.33 85 56.67 85 49.58 77.92 25.5 53.83"/><polygon class="8329ef8f-ce98-4222-9d06-66e9d705b96a" points="73.67 0 62.33 0 68 5.67 73.67 0"/><polygon class="8329ef8f-ce98-4222-9d06-66e9d705b96a" points="144.5 70.83 138.83 76.5 144.5 82.17 147.33 85 158.67 85 161.5 82.17 164.33 85 170 85 170 79.33 167.17 76.5 161.5 70.83 155.83 76.5 153 79.33 150.17 76.5 153 73.67 170 56.67 170 45.33 147.33 68 144.5 70.83"/><polygon class="8329ef8f-ce98-4222-9d06-66e9d705b96a" points="170 73.67 170 62.33 164.33 68 170 73.67"/><polygon class="8329ef8f-ce98-4222-9d06-66e9d705b96a" points="155.83 25.5 161.5 31.17 167.17 25.5 170 22.67 170 11.33 167.17 8.5 170 5.67 170 0 164.33 0 161.5 2.83 155.83 8.5 161.5 14.17 164.33 17 161.5 19.83 158.67 17 141.67 0 130.33 0 153 22.67 155.83 25.5"/><polygon class="8329ef8f-ce98-4222-9d06-66e9d705b96a" points="158.67 0 147.33 0 153 5.67 158.67 0"/><polygon class="8329ef8f-ce98-4222-9d06-66e9d705b96a" points="0 11.33 0 22.67 5.67 17 0 11.33"/></g></svg>